<?xml version="1.0" encoding="iso-8859-1"?>
<!-- Generator: Adobe Illustrator 19.0.0, SVG Export Plug-In . SVG Version: 6.00 Build 0)  -->
<svg version="1.1" id="Layer_1" xmlns="http://www.w3.org/2000/svg" xmlns:xlink="http://www.w3.org/1999/xlink" x="0px" y="0px"
	 viewBox="0 0 512 512" style="enable-background:new 0 0 512 512;" xml:space="preserve">
<g>
	<g>
		<path d="M378.02,299c-28.62,0-55.92-10.73-76.88-30.21c-13.82-12.85-24.05-28.73-30.02-46.22h-30.24
			c-5.97,17.49-16.2,33.37-30.02,46.22C189.9,288.27,162.6,299,133.98,299c-2.78,0-5.55-0.1-8.3-0.3
			c6.64,12.5,14.2,24.33,22.47,35.15c4.31-6.07,9.15-11.81,14.52-17.18c24.93-24.93,58.07-38.66,93.33-38.66s68.4,13.73,93.33,38.66
			c5.37,5.37,10.21,11.11,14.52,17.18c8.27-10.82,15.83-22.65,22.47-35.15C383.57,298.9,380.8,299,378.02,299z"/>
	</g>
</g>
<g>
	<g>
		<path d="M356.27,28.65C326.24,9.91,291.56,0,256,0s-70.24,9.91-100.27,28.65c-20.5,12.79-38.3,29.32-52.51,48.63
			c7.6-2.14,15.47-3.49,23.49-3.98c2.41-0.16,4.83-0.24,7.27-0.24h244.04c0.57,0,1.14,0,1.7,0.02c9.96,0.14,19.71,1.57,29.06,4.2
			C394.57,57.97,376.77,41.44,356.27,28.65z"/>
	</g>
</g>
<g>
	<g>
		<path d="M460.11,174l-1.08-5.91c-5.08-23.13-19.83-42.64-39.8-54.09c-2.49-1.43-5.07-2.73-7.72-3.9
			c-6.51-2.88-13.46-4.94-20.72-6.06c-4.16-0.65-8.43-0.98-12.77-0.98H133.98c-4.34,0-8.61,0.33-12.77,0.98
			c-7.26,1.12-14.21,3.18-20.72,6.06c-12.39,5.47-23.19,13.88-31.5,24.36c-11.26,14.16-17.98,32.08-17.98,51.57
			c0,22.4,8.88,42.73,23.31,57.66c5.73,5.93,12.33,11,19.6,15.01c3.33,1.84,6.79,3.46,10.38,4.82c2.17,0.84,4.38,1.59,6.63,2.23
			c7.32,2.12,15.05,3.25,23.05,3.25c43.62,0,79.35-33.67,82.69-76.43h78.66c3.34,42.76,39.07,76.43,82.69,76.43
			c8,0,15.73-1.13,23.05-3.25c3.59-1.03,7.07-2.3,10.44-3.79c2.25-0.99,4.44-2.07,6.57-3.26h0.01c9.6-5.3,18.04-12.45,24.82-20.98
			c0.02-0.01,0.03-0.02,0.04-0.04c11.29-14.17,18.04-32.12,18.04-51.65C460.99,181.94,460.69,177.92,460.11,174z"/>
	</g>
</g>
<g>
	<g>
		<path d="M124,410c0-1.21,0.02-2.41,0.05-3.61c0.4-15.22,3.37-30.01,8.71-43.87c-16.79-19.79-31.37-43.15-42.56-68.21
			c-0.74-1.66-1.47-3.33-2.18-5.01c-1.27-2.97-2.49-5.97-3.65-8.99c-1.63-4.2-3.16-8.44-4.58-12.71c-0.2-0.57-0.39-1.15-0.57-1.72
			l-1.03,0.63l-13.95,8.41l-50.4,30.42l89.62,148.51l23.82-14.37c-1.18-5.23-2.05-10.55-2.6-15.95C124.23,419.07,124,414.55,124,410
			z"/>
	</g>
</g>
<g>
	<g>
		<path d="M357.97,407.7c-0.01-0.6-0.03-1.19-0.06-1.78v-0.14v-0.05c0-0.05,0-0.11-0.01-0.16c-0.02-0.67-0.06-1.34-0.11-2.01v-0.04
			c0-0.15-0.01-0.29-0.03-0.43c-0.02-0.25-0.03-0.5-0.05-0.74c-0.01-0.25-0.03-0.49-0.06-0.74c-0.04-0.57-0.09-1.14-0.15-1.71
			c-0.01-0.19-0.03-0.39-0.06-0.58c0-0.05-0.01-0.09-0.01-0.14c-0.05-0.55-0.12-1.1-0.19-1.64c-0.03-0.3-0.07-0.6-0.11-0.9
			c-0.09-0.69-0.18-1.37-0.29-2.05c0-0.06-0.01-0.12-0.03-0.17c0-0.04-0.01-0.07-0.02-0.11c-0.01-0.07-0.02-0.15-0.03-0.22
			c-0.06-0.44-0.13-0.87-0.21-1.3c-0.01-0.07-0.02-0.15-0.04-0.22c-0.06-0.38-0.12-0.75-0.2-1.13c-0.02-0.13-0.04-0.25-0.07-0.37
			c-0.12-0.66-0.25-1.32-0.39-1.97c-0.03-0.13-0.05-0.27-0.08-0.4c-0.11-0.54-0.23-1.08-0.36-1.62c-0.02-0.12-0.05-0.25-0.08-0.37
			c-0.14-0.58-0.28-1.16-0.43-1.74v-0.02c-0.07-0.31-0.15-0.6-0.24-0.91c-0.16-0.6-0.32-1.19-0.49-1.79
			c-0.17-0.59-0.34-1.18-0.52-1.77c-0.17-0.59-0.35-1.18-0.55-1.76c-0.18-0.56-0.36-1.12-0.55-1.67c-0.19-0.56-0.38-1.11-0.58-1.67
			c-0.01-0.03-0.02-0.05-0.03-0.08c-0.14-0.39-0.29-0.79-0.44-1.18c-0.07-0.19-0.14-0.37-0.21-0.56c-0.04-0.1-0.08-0.19-0.11-0.29
			c-0.06-0.15-0.13-0.31-0.19-0.47c-0.06-0.16-0.12-0.31-0.18-0.46c-0.27-0.69-0.54-1.36-0.83-2.04c-0.27-0.64-0.54-1.26-0.83-1.89
			c-0.28-0.63-0.57-1.25-0.86-1.88c-0.21-0.46-0.43-0.91-0.66-1.37c-0.53-1.09-1.08-2.16-1.66-3.23c-0.28-0.53-0.57-1.06-0.87-1.59
			c-0.29-0.53-0.59-1.05-0.9-1.57c-0.3-0.52-0.61-1.04-0.92-1.56c-0.34-0.56-0.69-1.12-1.04-1.68c-0.22-0.35-0.44-0.69-0.66-1.03
			c-0.38-0.59-0.77-1.18-1.17-1.76c-0.31-0.45-0.62-0.91-0.93-1.35c-0.02-0.03-0.04-0.05-0.06-0.08c-0.18-0.26-0.36-0.52-0.55-0.77
			c-0.06-0.09-0.12-0.18-0.19-0.26c-0.31-0.44-0.63-0.87-0.95-1.3c-0.28-0.38-0.57-0.76-0.87-1.14c-0.02-0.02-0.04-0.05-0.06-0.07
			c-0.26-0.36-0.54-0.71-0.81-1.06h-0.01c-0.52-0.65-1.04-1.3-1.57-1.94c-0.01-0.01-0.02-0.02-0.03-0.03
			c-0.16-0.2-0.33-0.39-0.5-0.59c-0.48-0.57-0.97-1.14-1.47-1.7c-0.03-0.04-0.06-0.07-0.09-0.11c-0.1-0.11-0.2-0.22-0.3-0.33
			c-0.2-0.23-0.41-0.46-0.62-0.69c-0.31-0.34-0.62-0.68-0.94-1.01c-0.3-0.32-0.6-0.65-0.92-0.97c-0.33-0.36-0.68-0.71-1.03-1.06
			c-0.19-0.19-0.38-0.39-0.57-0.58c-0.42-0.41-0.84-0.82-1.26-1.23c-0.06-0.06-0.12-0.11-0.18-0.17c-0.04-0.04-0.09-0.08-0.13-0.13
			c-0.63-0.6-1.28-1.2-1.93-1.79c-0.65-0.59-1.3-1.17-1.97-1.74c-0.58-0.5-1.16-0.99-1.75-1.47c-0.44-0.36-0.88-0.72-1.33-1.07
			c-0.3-0.24-0.6-0.48-0.9-0.71c-0.39-0.31-0.79-0.61-1.19-0.91c-0.19-0.15-0.38-0.29-0.57-0.43c-0.52-0.39-1.03-0.76-1.56-1.13
			c-0.21-0.15-0.42-0.3-0.63-0.45c-0.48-0.34-0.97-0.68-1.46-1.01c-0.84-0.56-1.69-1.12-2.54-1.66c-0.55-0.35-1.11-0.69-1.66-1.03
			c-0.31-0.19-0.63-0.38-0.94-0.56c-0.5-0.31-1.01-0.6-1.53-0.89c-0.63-0.36-1.26-0.71-1.89-1.05c-0.5-0.28-1.01-0.55-1.52-0.81
			c-0.05-0.02-0.09-0.05-0.14-0.07c-0.29-0.16-0.58-0.31-0.88-0.46c-0.02-0.01-0.05-0.02-0.07-0.03c-0.03-0.01-0.05-0.03-0.08-0.04
			c-0.03-0.02-0.07-0.03-0.1-0.05c-0.05-0.02-0.09-0.05-0.14-0.07c-0.07-0.03-0.13-0.07-0.2-0.1c-0.16-0.08-0.31-0.15-0.46-0.22
			c-0.35-0.18-0.71-0.35-1.06-0.52c-0.06-0.03-0.11-0.06-0.17-0.08c-0.01,0-0.01-0.01-0.02-0.01c-0.57-0.27-1.14-0.53-1.71-0.79
			c-0.51-0.23-1.02-0.46-1.53-0.68c-0.11-0.05-0.21-0.09-0.32-0.14c-0.25-0.11-0.51-0.21-0.77-0.32c-0.59-0.25-1.18-0.49-1.77-0.72
			c-0.24-0.09-0.47-0.19-0.71-0.28c-0.58-0.23-1.17-0.45-1.76-0.66c-0.16-0.07-0.32-0.12-0.48-0.18c-0.63-0.23-1.28-0.46-1.92-0.67
			c-0.66-0.23-1.32-0.44-1.99-0.65c-0.26-0.08-0.51-0.16-0.77-0.24c-0.67-0.21-1.35-0.41-2.03-0.6c-0.7-0.2-1.4-0.39-2.1-0.57
			c-0.29-0.08-0.57-0.15-0.86-0.22c-0.59-0.15-1.18-0.3-1.78-0.43c-0.34-0.08-0.68-0.16-1.03-0.23c-0.06-0.01-0.12-0.03-0.18-0.04
			c-0.43-0.1-0.88-0.2-1.32-0.29c-0.15-0.03-0.3-0.06-0.45-0.09c-0.54-0.11-1.08-0.21-1.63-0.31c-0.73-0.14-1.46-0.26-2.2-0.38
			c-0.41-0.07-0.82-0.13-1.23-0.19c-0.11-0.02-0.21-0.03-0.32-0.05c-0.61-0.09-1.22-0.17-1.83-0.25c-0.13-0.02-0.27-0.03-0.4-0.05
			c-1.57-0.19-3.15-0.35-4.74-0.47c-0.6-0.05-1.21-0.09-1.81-0.12c-0.05-0.01-0.1-0.01-0.14-0.01c-0.06,0-0.12-0.01-0.18-0.01h-0.05
			c-0.26-0.02-0.52-0.03-0.78-0.04c-0.04-0.01-0.07-0.01-0.11-0.01h-0.05c-0.07-0.01-0.13-0.01-0.19-0.01
			c-0.6-0.03-1.2-0.05-1.8-0.07h-0.35c-0.8-0.02-1.59-0.03-2.39-0.03c-0.66,0-1.32,0.01-1.98,0.02h-0.17
			c-0.36,0.01-0.73,0.02-1.1,0.03c-0.08,0-0.16,0.01-0.24,0.01c-0.71,0.02-1.42,0.05-2.13,0.09c-0.74,0.04-1.48,0.09-2.22,0.15
			h-0.03c-0.86,0.06-1.71,0.14-2.56,0.23c-0.86,0.08-1.71,0.18-2.56,0.29c-0.61,0.07-1.21,0.16-1.81,0.25
			c-0.34,0.05-0.68,0.1-1.01,0.15c-0.08,0.01-0.15,0.02-0.23,0.03c-0.49,0.08-0.98,0.16-1.47,0.25c-0.3,0.05-0.6,0.1-0.9,0.16
			c-0.5,0.09-1,0.19-1.5,0.29c-0.38,0.07-0.75,0.15-1.13,0.23c-0.51,0.1-1.02,0.21-1.53,0.33c-0.37,0.08-0.73,0.16-1.09,0.25
			c-0.74,0.17-1.47,0.36-2.2,0.55c-0.65,0.17-1.29,0.34-1.93,0.52c-0.51,0.15-1.01,0.29-1.52,0.45c-0.45,0.13-0.9,0.27-1.35,0.41
			c-1.17,0.37-2.33,0.76-3.48,1.17c-0.06,0.02-0.13,0.05-0.19,0.07c-0.47,0.17-0.93,0.33-1.39,0.51c-1.12,0.41-2.22,0.84-3.31,1.3
			c-0.49,0.2-0.98,0.41-1.46,0.62c-1.15,0.49-2.28,1-3.39,1.54c-0.21,0.09-0.42,0.19-0.63,0.3c-0.21,0.1-0.42,0.21-0.63,0.31
			c-0.06,0.03-0.11,0.05-0.17,0.08c-0.1,0.05-0.19,0.1-0.28,0.14c-0.03,0.02-0.07,0.03-0.1,0.05c-0.03,0.02-0.07,0.03-0.1,0.05
			c-0.02,0.01-0.05,0.02-0.07,0.03c-0.08,0.04-0.16,0.08-0.23,0.12c-0.01,0.01-0.02,0.01-0.03,0.01c-0.31,0.16-0.62,0.33-0.92,0.49
			c-1.05,0.54-2.08,1.1-3.1,1.68c-0.51,0.29-1.02,0.58-1.52,0.88c-1.01,0.59-2.01,1.2-3,1.83h-0.01c-0.73,0.47-1.45,0.94-2.16,1.42
			c-0.35,0.24-0.69,0.47-1.04,0.71c-0.09,0.06-0.19,0.13-0.28,0.19c-0.2,0.13-0.39,0.27-0.58,0.4c-0.2,0.14-0.39,0.28-0.58,0.42
			c-0.03,0.02-0.07,0.05-0.1,0.07c-0.54,0.39-1.08,0.78-1.61,1.18c-0.61,0.46-1.22,0.92-1.82,1.39c-0.02,0.01-0.03,0.03-0.05,0.04
			c-0.01,0.01-0.03,0.02-0.04,0.03c-0.04,0.03-0.08,0.05-0.11,0.09c-0.5,0.39-1,0.79-1.49,1.2c-0.26,0.2-0.51,0.41-0.76,0.62
			c-0.61,0.51-1.21,1.02-1.81,1.55c-0.3,0.27-0.6,0.53-0.9,0.8c-0.3,0.27-0.6,0.53-0.9,0.81c-0.03,0.02-0.05,0.05-0.08,0.07
			c-0.01,0.01-0.02,0.02-0.03,0.03c-0.02,0.02-0.03,0.04-0.05,0.04c-0.14,0.14-0.29,0.27-0.43,0.41c-0.24,0.22-0.47,0.44-0.71,0.67
			c-0.23,0.22-0.46,0.44-0.7,0.67c-0.72,0.69-1.42,1.39-2.11,2.11c-0.12,0.11-0.24,0.23-0.36,0.36c-0.34,0.35-0.68,0.7-1.01,1.06
			c-0.23,0.24-0.45,0.48-0.68,0.73c-0.05,0.06-0.11,0.12-0.17,0.18l-0.01,0.01c-0.01,0.01-0.01,0.01-0.02,0.02
			c-0.01,0.02-0.02,0.03-0.05,0.05c-0.01,0.01-0.01,0.03-0.03,0.04s-0.03,0.03-0.04,0.04c-0.02,0.02-0.03,0.03-0.04,0.05
			c-0.05,0.06-0.11,0.12-0.17,0.18c-0.03,0.04-0.06,0.08-0.11,0.12c0,0.02-0.02,0.03-0.03,0.04c-0.01,0.02-0.02,0.03-0.03,0.04
			h-0.01c-0.03,0.03-0.05,0.06-0.07,0.09c-0.02,0.02-0.03,0.04-0.05,0.05c-0.02,0.02-0.04,0.04-0.06,0.06
			c-0.06,0.08-0.13,0.16-0.2,0.24c-0.1,0.11-0.2,0.22-0.29,0.33c-0.3,0.33-0.59,0.66-0.87,0.99c-0.33,0.37-0.64,0.74-0.95,1.12
			c-0.35,0.4-0.68,0.8-1,1.21c-0.28,0.33-0.55,0.67-0.82,1.02c-0.18,0.22-0.35,0.45-0.52,0.68c-0.39,0.48-0.76,0.97-1.13,1.47
			c-0.38,0.51-0.75,1.02-1.12,1.53c-0.27,0.36-0.53,0.74-0.79,1.11c-0.33,0.47-0.66,0.94-0.98,1.42c-0.38,0.56-0.75,1.13-1.12,1.7
			c-0.52,0.82-1.04,1.64-1.54,2.47c-0.31,0.51-0.62,1.03-0.92,1.55c-0.15,0.26-0.3,0.52-0.45,0.78c-0.15,0.26-0.29,0.52-0.44,0.78
			c-0.27,0.48-0.54,0.97-0.8,1.46c-0.02,0.03-0.04,0.05-0.05,0.08c-0.61,1.13-1.19,2.28-1.76,3.43c-0.21,0.43-0.41,0.85-0.61,1.28
			c-0.02,0.04-0.04,0.09-0.06,0.13c-0.52,1.11-1.02,2.22-1.5,3.35c-0.12,0.29-0.25,0.58-0.37,0.87c-0.2,0.5-0.41,1-0.61,1.5
			c-0.04,0.1-0.08,0.21-0.12,0.31c-0.18,0.46-0.36,0.92-0.53,1.39c-0.04,0.1-0.07,0.2-0.11,0.3c-0.16,0.43-0.32,0.86-0.47,1.29
			c-0.09,0.23-0.17,0.46-0.25,0.69c-0.03,0.08-0.06,0.16-0.08,0.24c-0.11,0.29-0.21,0.58-0.3,0.88c-0.04,0.11-0.07,0.21-0.11,0.32
			c-0.15,0.43-0.28,0.87-0.42,1.31c-0.01,0.03-0.02,0.06-0.03,0.09c-0.03,0.1-0.06,0.19-0.09,0.29c-0.04,0.09-0.06,0.19-0.09,0.29
			c-0.13,0.41-0.26,0.82-0.38,1.24c-0.12,0.39-0.23,0.79-0.34,1.18c-0.17,0.6-0.33,1.2-0.49,1.8c-0.09,0.31-0.17,0.62-0.24,0.93
			c-0.15,0.58-0.29,1.16-0.43,1.74c-0.03,0.12-0.06,0.25-0.08,0.37c-0.13,0.54-0.25,1.08-0.36,1.62c-0.03,0.13-0.05,0.27-0.08,0.4
			c-0.14,0.65-0.27,1.31-0.39,1.97c-0.03,0.12-0.05,0.24-0.07,0.37c-0.08,0.38-0.14,0.75-0.2,1.13c-0.02,0.07-0.03,0.15-0.04,0.22
			c-0.08,0.43-0.15,0.86-0.21,1.3c-0.01,0.07-0.02,0.15-0.03,0.22c-0.01,0.04-0.02,0.07-0.02,0.11c-0.02,0.05-0.03,0.11-0.03,0.17
			c-0.11,0.68-0.2,1.36-0.29,2.05c-0.04,0.3-0.08,0.6-0.11,0.9c-0.07,0.55-0.13,1.09-0.19,1.64c0,0.05-0.01,0.09-0.01,0.14
			c-0.03,0.19-0.05,0.39-0.06,0.58c-0.06,0.57-0.11,1.14-0.15,1.71c-0.03,0.25-0.05,0.49-0.06,0.74c-0.02,0.24-0.03,0.49-0.05,0.74
			c-0.02,0.14-0.03,0.28-0.03,0.43v0.04c-0.05,0.66-0.08,1.34-0.11,2.01c-0.01,0.05-0.01,0.11-0.01,0.16v0.05v0.14
			c-0.03,0.59-0.05,1.18-0.06,1.78c-0.02,0.76-0.03,1.53-0.03,2.3c0,0.76,0.01,1.52,0.03,2.28c0,0.25,0.01,0.5,0.02,0.75v0.23
			c0.02,0.65,0.05,1.3,0.08,1.95v0.11c0.05,0.8,0.1,1.59,0.16,2.38c0.01,0.12,0.02,0.25,0.03,0.37v0.03c0.03,0.39,0.05,0.8,0.11,1.2
			c0,0.06,0.01,0.12,0.02,0.18c0,0.05,0,0.09,0.01,0.14c0,0.04,0.01,0.07,0.01,0.11s0.01,0.08,0.01,0.12c0.01,0.1,0.02,0.2,0.03,0.3
			c0.01,0.18,0.03,0.37,0.05,0.55c0.05,0.55,0.12,1.1,0.19,1.65c0.02,0.17,0.04,0.35,0.06,0.52c0.06,0.46,0.12,0.93,0.19,1.39
			c0.07,0.55,0.15,1.09,0.24,1.64c0.08,0.55,0.17,1.1,0.27,1.65c0.13,0.77,0.28,1.54,0.43,2.31c0.15,0.77,0.31,1.53,0.48,2.29
			c0.08,0.37,0.16,0.75,0.25,1.13c0.09,0.37,0.18,0.74,0.27,1.12c0.01,0.02,0.01,0.04,0.02,0.06c0.15,0.64,0.31,1.28,0.49,1.91
			c0.01,0.05,0.03,0.11,0.04,0.16c0.03,0.11,0.06,0.22,0.09,0.33c0,0.01,0.01,0.03,0.01,0.04c0.07,0.28,0.15,0.56,0.23,0.83
			c0.08,0.27,0.16,0.55,0.24,0.82c0.12,0.43,0.25,0.85,0.38,1.28c0.07,0.26,0.15,0.51,0.24,0.77c0.12,0.41,0.25,0.82,0.39,1.22
			c0.15,0.47,0.31,0.94,0.47,1.4c0.04,0.14,0.09,0.28,0.14,0.41c0.21,0.62,0.43,1.23,0.66,1.84c0.24,0.65,0.48,1.29,0.74,1.93
			c0.3,0.77,0.62,1.54,0.94,2.31c0.25,0.6,0.51,1.2,0.78,1.79c0,0.01,0.01,0.02,0.01,0.03c0.02,0.05,0.04,0.09,0.06,0.14
			c0.11,0.23,0.21,0.46,0.32,0.68c0.28,0.63,0.57,1.25,0.87,1.87s0.6,1.24,0.91,1.85c0.27,0.52,0.54,1.04,0.81,1.55
			c0.09,0.17,0.17,0.33,0.26,0.5c0.04,0.07,0.08,0.15,0.12,0.22c0.3,0.56,0.61,1.1,0.92,1.65c0.21,0.37,0.42,0.74,0.62,1.1
			c0.04,0.06,0.07,0.11,0.1,0.17c0.01,0,0.01,0.01,0.01,0.01c0.04,0.07,0.08,0.14,0.12,0.21c0.21,0.36,0.42,0.71,0.63,1.05
			c0.15,0.26,0.3,0.52,0.47,0.77c0.19,0.33,0.39,0.65,0.6,0.97c0.32,0.52,0.65,1.03,0.99,1.54c0.41,0.63,0.83,1.26,1.26,1.88
			c0.22,0.31,0.43,0.63,0.65,0.93c0.21,0.31,0.43,0.62,0.65,0.92c0.01,0.02,0.03,0.04,0.05,0.06c0.07,0.1,0.14,0.2,0.21,0.3
			c0.27,0.39,0.54,0.76,0.83,1.13c0,0.01,0.01,0.02,0.02,0.03c0.28,0.37,0.56,0.74,0.84,1.1c0.13,0.16,0.26,0.33,0.39,0.5
			c0.12,0.17,0.26,0.34,0.39,0.5c0.93,1.18,1.89,2.34,2.87,3.48c0.04,0.04,0.07,0.08,0.1,0.12c0.48,0.55,0.96,1.09,1.45,1.63
			c0.49,0.54,0.98,1.07,1.48,1.6c0.48,0.51,0.96,1.01,1.46,1.51c0.05,0.06,0.1,0.12,0.17,0.18l0.01,0.01
			c0.4,0.41,0.8,0.81,1.22,1.21c0.15,0.16,0.31,0.31,0.47,0.46c0.49,0.47,0.98,0.94,1.48,1.4c0.55,0.51,1.11,1.02,1.67,1.52
			s1.13,0.99,1.71,1.48c0.48,0.42,0.97,0.83,1.47,1.24c0.26,0.21,0.52,0.42,0.79,0.63c0.01,0.01,0.03,0.02,0.04,0.03
			c0.39,0.31,0.78,0.62,1.17,0.92c0.59,0.46,1.19,0.92,1.79,1.36c0.56,0.42,1.13,0.84,1.7,1.24c0.4,0.29,0.8,0.57,1.21,0.84
			c0.03,0.02,0.07,0.05,0.1,0.07c0.33,0.23,0.65,0.45,0.99,0.67c0.4,0.27,0.79,0.53,1.19,0.79c0.03,0.02,0.06,0.04,0.09,0.06
			c0.04,0.02,0.07,0.05,0.11,0.07c0,0,0.01,0,0.01,0.01c0.2,0.12,0.39,0.24,0.59,0.37c0.1,0.07,0.2,0.13,0.3,0.19
			c0.06,0.04,0.12,0.08,0.18,0.12c0.46,0.29,0.92,0.58,1.39,0.86c0.46,0.28,0.92,0.56,1.39,0.83c0.09,0.06,0.19,0.11,0.28,0.16
			c0.21,0.12,0.41,0.24,0.61,0.36s0.4,0.23,0.61,0.34c0.4,0.23,0.8,0.46,1.21,0.67c0.11,0.06,0.21,0.12,0.32,0.18
			c0.45,0.25,0.91,0.49,1.38,0.73c0.06,0.03,0.12,0.06,0.18,0.09c0.34,0.18,0.69,0.36,1.04,0.53c0.04,0.02,0.07,0.04,0.11,0.06
			c0.32,0.17,0.65,0.33,0.98,0.49c0.41,0.2,0.82,0.4,1.23,0.59c0.62,0.3,1.25,0.59,1.88,0.87c0.6,0.27,1.21,0.53,1.82,0.79
			c0.07,0.04,0.14,0.07,0.22,0.09c0.08,0.04,0.17,0.07,0.25,0.11c0.45,0.19,0.9,0.37,1.35,0.54c0.09,0.04,0.17,0.08,0.26,0.11
			c0.37,0.15,0.75,0.3,1.12,0.44c0.56,0.22,1.13,0.43,1.7,0.64c0.57,0.21,1.14,0.41,1.72,0.61c0.33,0.12,0.67,0.23,1,0.34
			c0.69,0.23,1.39,0.46,2.09,0.67c0.61,0.19,1.23,0.38,1.86,0.55c0.28,0.08,0.56,0.17,0.85,0.24c0.42,0.12,0.84,0.24,1.26,0.35
			c0.1,0.03,0.21,0.05,0.31,0.08c0.49,0.13,0.98,0.26,1.47,0.37c0.37,0.1,0.75,0.19,1.12,0.27c0.27,0.06,0.53,0.13,0.8,0.18
			c0.09,0.02,0.18,0.04,0.27,0.06c0.34,0.08,0.68,0.16,1.03,0.23c0.05,0.01,0.11,0.02,0.16,0.03c0.24,0.05,0.48,0.11,0.72,0.15
			c0.25,0.05,0.49,0.1,0.73,0.14c0.27,0.06,0.55,0.11,0.82,0.16c0.47,0.09,0.95,0.18,1.42,0.25c0.01,0,0.02,0,0.03,0.01
			c0.47,0.08,0.94,0.16,1.42,0.23c0.05,0.01,0.11,0.01,0.16,0.02c0.09,0.02,0.19,0.04,0.3,0.05c0.65,0.1,1.3,0.2,1.96,0.28
			c0.29,0.04,0.59,0.08,0.89,0.11c0.52,0.07,1.04,0.13,1.56,0.18c0.07,0.01,0.13,0.01,0.2,0.02c0.2,0.02,0.42,0.04,0.63,0.06
			c0.09,0.01,0.19,0.02,0.28,0.03c0.4,0.04,0.81,0.08,1.22,0.11c0.06,0,0.11,0.01,0.17,0.01c0.08,0.01,0.15,0.01,0.23,0.02
			c0.07,0.01,0.15,0.01,0.22,0.02c0.08,0.01,0.16,0.02,0.25,0.02c0.08,0.01,0.17,0.01,0.25,0.02c0.5,0.04,1,0.07,1.5,0.1
			c0.08,0,0.15,0.01,0.23,0.01c0.29,0.02,0.57,0.04,0.86,0.05c0.29,0.02,0.58,0.02,0.87,0.03c0.04,0.01,0.07,0.01,0.11,0.01
			c0.07,0,0.13,0.01,0.2,0.01c0.22,0.01,0.45,0.02,0.67,0.02c0.22,0.01,0.45,0.01,0.67,0.02c0.81,0.02,1.62,0.03,2.43,0.03
			c0.81,0,1.62-0.01,2.43-0.03c0.22-0.01,0.45-0.01,0.67-0.02c0.22,0,0.45-0.01,0.67-0.02c0.07,0,0.13-0.01,0.2-0.01
			c0.04,0,0.07,0,0.11-0.01c0.29-0.01,0.58-0.01,0.87-0.03c0.29-0.01,0.57-0.03,0.86-0.05c0.08,0,0.15-0.01,0.23-0.01
			c0.5-0.03,1-0.06,1.5-0.1c0.08-0.01,0.17-0.01,0.25-0.02c0.09,0,0.17-0.01,0.25-0.02c0.07-0.01,0.15-0.01,0.22-0.02
			c0.08-0.01,0.15-0.01,0.23-0.02c0.06,0,0.11-0.01,0.17-0.01c0.41-0.03,0.82-0.07,1.22-0.11c0.09-0.01,0.19-0.02,0.28-0.03
			c0.21-0.02,0.43-0.04,0.63-0.06c0.07-0.01,0.13-0.01,0.2-0.02c0.52-0.05,1.04-0.11,1.56-0.18c0.3-0.03,0.6-0.07,0.89-0.11
			c0.66-0.08,1.31-0.18,1.96-0.28c0.11-0.01,0.21-0.03,0.3-0.05c0.05-0.01,0.11-0.01,0.16-0.02c0.48-0.07,0.95-0.15,1.42-0.23
			c0.01-0.01,0.02-0.01,0.03-0.01c0.47-0.07,0.95-0.16,1.42-0.25c0.27-0.05,0.55-0.1,0.82-0.16c0.24-0.04,0.48-0.09,0.73-0.14
			c0.24-0.04,0.48-0.1,0.72-0.15c0.05-0.01,0.11-0.02,0.16-0.03c0.35-0.07,0.69-0.15,1.03-0.23c0.09-0.02,0.18-0.04,0.27-0.06
			c0.27-0.05,0.54-0.11,0.8-0.18c0.37-0.08,0.75-0.17,1.12-0.27c0.49-0.11,0.98-0.24,1.47-0.37c0.1-0.03,0.21-0.05,0.31-0.08
			c0.42-0.11,0.84-0.23,1.26-0.35c0.28-0.07,0.57-0.15,0.85-0.24c0.63-0.17,1.25-0.36,1.86-0.55c0.7-0.21,1.4-0.44,2.09-0.67
			c0.33-0.11,0.67-0.22,1-0.34c0.58-0.2,1.15-0.4,1.72-0.61c0.57-0.21,1.14-0.42,1.7-0.64c0.37-0.14,0.75-0.29,1.12-0.44
			c0.09-0.03,0.17-0.07,0.26-0.11c0.45-0.17,0.9-0.35,1.35-0.54c0.08-0.04,0.17-0.07,0.25-0.11c0.08-0.02,0.15-0.05,0.22-0.09
			c0.61-0.26,1.22-0.52,1.82-0.79c0.63-0.28,1.26-0.57,1.88-0.87c0.41-0.19,0.82-0.39,1.23-0.59c0.33-0.16,0.66-0.32,0.98-0.49
			c0.04-0.02,0.07-0.04,0.11-0.06c0.35-0.17,0.7-0.35,1.04-0.53c0.06-0.03,0.12-0.06,0.18-0.09c0.47-0.24,0.93-0.48,1.38-0.73
			c0.11-0.06,0.21-0.12,0.32-0.18c0.41-0.21,0.81-0.44,1.21-0.67c0.21-0.11,0.41-0.22,0.61-0.34s0.4-0.24,0.61-0.36
			c0.09-0.05,0.19-0.1,0.28-0.16c0.47-0.27,0.93-0.55,1.39-0.83c0.47-0.28,0.93-0.57,1.39-0.86c0.06-0.04,0.12-0.08,0.18-0.12
			c0.1-0.06,0.2-0.12,0.3-0.19c0.2-0.13,0.39-0.25,0.59-0.37c0-0.01,0.01-0.01,0.01-0.01c0.04-0.02,0.07-0.05,0.11-0.07
			c0.03-0.02,0.06-0.04,0.09-0.06c0.4-0.26,0.79-0.52,1.19-0.79c0.34-0.22,0.66-0.44,0.99-0.67c0.03-0.02,0.07-0.05,0.1-0.07
			c0.41-0.27,0.81-0.55,1.21-0.84c0.57-0.41,1.14-0.82,1.71-1.24c0.6-0.45,1.19-0.9,1.78-1.36c0.39-0.3,0.78-0.61,1.17-0.92
			c0.01-0.01,0.03-0.02,0.04-0.03c0.27-0.21,0.53-0.42,0.79-0.63c0.5-0.41,0.99-0.82,1.47-1.24c0.58-0.49,1.15-0.98,1.71-1.48
			s1.12-1.01,1.67-1.52c0.5-0.46,0.99-0.93,1.48-1.4c0.16-0.15,0.32-0.3,0.47-0.46c0.42-0.4,0.82-0.8,1.22-1.21l0.01-0.01
			c0.07-0.06,0.12-0.12,0.17-0.18c0.5-0.5,0.98-1,1.46-1.51c0.5-0.53,0.99-1.06,1.48-1.6c0.49-0.53,0.97-1.08,1.45-1.63
			c0.03-0.04,0.06-0.08,0.1-0.12c0.98-1.14,1.94-2.3,2.87-3.48c0.13-0.16,0.27-0.33,0.39-0.5c0.13-0.17,0.26-0.34,0.39-0.5
			c0.28-0.36,0.56-0.73,0.84-1.1c0.01-0.01,0.02-0.02,0.02-0.03c0.29-0.37,0.56-0.74,0.83-1.13c0.07-0.1,0.14-0.2,0.21-0.3
			c0.02-0.02,0.04-0.04,0.05-0.06c0.22-0.3,0.44-0.61,0.65-0.92c0.22-0.3,0.43-0.62,0.65-0.93c0.43-0.62,0.85-1.25,1.26-1.88
			c0.34-0.51,0.67-1.02,0.99-1.54c0.21-0.32,0.41-0.64,0.6-0.97c0.17-0.25,0.32-0.51,0.47-0.77c0.21-0.34,0.42-0.69,0.63-1.05
			c0.04-0.07,0.08-0.14,0.12-0.21c0,0,0-0.01,0.01-0.01c0.03-0.06,0.06-0.11,0.1-0.17c0.2-0.36,0.41-0.73,0.62-1.1
			c0.31-0.55,0.62-1.09,0.92-1.65c0.04-0.07,0.08-0.15,0.12-0.22c0.09-0.17,0.17-0.33,0.26-0.5c0.27-0.51,0.54-1.03,0.81-1.55
			c0.31-0.61,0.61-1.23,0.91-1.85c0.3-0.62,0.59-1.24,0.88-1.87c0.09-0.2,0.19-0.41,0.27-0.61c0.04-0.08,0.07-0.16,0.11-0.24
			c0.27-0.59,0.53-1.19,0.78-1.79c0.32-0.77,0.64-1.54,0.94-2.31c0.26-0.64,0.5-1.28,0.74-1.93c0.23-0.61,0.45-1.22,0.66-1.84
			c0.05-0.13,0.1-0.27,0.14-0.41c0.16-0.46,0.32-0.93,0.47-1.4c0.14-0.4,0.27-0.81,0.39-1.22c0.09-0.26,0.17-0.51,0.24-0.77
			c0.13-0.43,0.26-0.85,0.39-1.28c0.03-0.09,0.05-0.18,0.08-0.27c0.12-0.44,0.25-0.89,0.37-1.34c0.01-0.03,0.01-0.05,0.02-0.08
			c0.03-0.11,0.06-0.22,0.09-0.33c0.01-0.05,0.03-0.11,0.04-0.16c0.18-0.63,0.34-1.27,0.49-1.91c0.01-0.02,0.01-0.04,0.02-0.06
			c0.09-0.38,0.18-0.75,0.27-1.12c0.09-0.38,0.17-0.76,0.25-1.13c0.17-0.76,0.33-1.52,0.48-2.29c0.09-0.44,0.18-0.88,0.26-1.32
			c0.01-0.04,0.01-0.07,0.02-0.11c0-0.02,0.01-0.03,0.01-0.05c0-0.02,0.01-0.04,0.01-0.06c0.05-0.25,0.08-0.52,0.13-0.77
			c0.1-0.55,0.19-1.1,0.27-1.65c0.09-0.55,0.17-1.09,0.24-1.64c0.07-0.46,0.13-0.93,0.19-1.39c0.02-0.17,0.04-0.35,0.06-0.52
			c0.07-0.55,0.14-1.1,0.19-1.65c0.02-0.18,0.04-0.37,0.05-0.55c0.01-0.1,0.02-0.2,0.03-0.3c0-0.04,0.01-0.08,0.01-0.12
			c0-0.04,0.01-0.07,0.01-0.11c0.01-0.05,0.01-0.09,0.01-0.14c0.01-0.06,0.02-0.12,0.02-0.18c0.06-0.4,0.08-0.81,0.11-1.2v-0.03
			c0.01-0.12,0.02-0.25,0.03-0.37c0.06-0.79,0.11-1.58,0.16-2.38v-0.11c0.03-0.65,0.06-1.3,0.08-1.95v-0.23
			c0.01-0.25,0.02-0.5,0.02-0.75c0.02-0.76,0.03-1.52,0.03-2.28C358,409.23,357.99,408.46,357.97,407.7z M225.83,454.45
			c-9.29,0-16.83-7.54-16.83-16.84c0-9.29,7.54-16.83,16.83-16.83c9.3,0,16.84,7.54,16.84,16.83
			C242.67,446.91,235.13,454.45,225.83,454.45z M225.83,399.23c-9.29,0-16.83-7.54-16.83-16.83c0-9.3,7.54-16.84,16.83-16.84
			c9.3,0,16.84,7.54,16.84,16.84C242.67,391.69,235.13,399.23,225.83,399.23z M286.17,454.45c-9.3,0-16.84-7.54-16.84-16.84
			c0-9.29,7.54-16.83,16.84-16.83c9.29,0,16.83,7.54,16.83,16.83C303,446.91,295.46,454.45,286.17,454.45z M286.17,399.23
			c-9.3,0-16.84-7.54-16.84-16.83c0-9.3,7.54-16.84,16.84-16.84c9.29,0,16.83,7.54,16.83,16.84
			C303,391.69,295.46,399.23,286.17,399.23z"/>
	</g>
</g>
<g>
	<g>
		<path d="M447.76,274.92l-13.95-8.41l-1.03-0.63c-0.18,0.57-0.37,1.15-0.57,1.72c-1.42,4.27-2.95,8.51-4.58,12.71
			c-1.16,3.02-2.38,6.02-3.65,8.99c-0.71,1.68-1.44,3.35-2.18,5.01c-11.19,25.06-25.77,48.42-42.56,68.21
			c5.34,13.86,8.31,28.65,8.71,43.87c0.03,1.2,0.05,2.4,0.05,3.61c0,4.55-0.23,9.07-0.68,13.53c-0.55,5.4-1.42,10.72-2.6,15.95
			l23.82,14.37l89.62-148.51L447.76,274.92z"/>
	</g>
</g>
<g>
</g>
<g>
</g>
<g>
</g>
<g>
</g>
<g>
</g>
<g>
</g>
<g>
</g>
<g>
</g>
<g>
</g>
<g>
</g>
<g>
</g>
<g>
</g>
<g>
</g>
<g>
</g>
<g>
</g>
</svg>
