<?xml version="1.0" encoding="iso-8859-1"?>
<!-- Generator: Adobe Illustrator 19.0.0, SVG Export Plug-In . SVG Version: 6.00 Build 0)  -->
<svg version="1.1" id="Capa_1" xmlns="http://www.w3.org/2000/svg" xmlns:xlink="http://www.w3.org/1999/xlink" x="0px" y="0px"
	 viewBox="0 0 480 480" style="enable-background:new 0 0 480 480;" xml:space="preserve">
<g>
	<g>
		<path d="M448,164.046h-81.36c4.502-26.039-12.957-50.798-38.996-55.3c-2.709-0.468-5.454-0.703-8.204-0.7h-8
			c-4.013-27.538-27.611-47.969-55.44-48c-0.536,0-1.064,0-1.6,0c-22.051-43.311-75.037-60.545-118.348-38.494
			c-24.48,12.464-41.735,35.644-46.652,62.67c-1.402,7.86-1.752,15.872-1.04,23.824c-24.609,0.379-45.161,18.865-48.136,43.296
			c-1.282,13.371,3.067,26.672,12,36.704H32c-17.673,0-32,14.327-32,32s14.327,32,32,32h60.688L18.344,326.39
			c-3.124,3.125-3.123,8.19,0.002,11.314c1.5,1.499,3.534,2.342,5.654,2.342h44.08l-27.616,77.312
			c-1.484,4.162,0.687,8.738,4.848,10.222c2.911,1.038,6.159,0.307,8.344-1.878l120-120c3.124-3.125,3.123-8.19-0.002-11.314
			c-1.5-1.499-3.534-2.342-5.654-2.342h-44.08l14.288-40h30.928c3.637,14.085,16.317,23.945,30.864,24h192
			c17.673-0.005,31.996-14.336,31.991-32.009c-0.002-5.614-1.48-11.129-4.287-15.991H448c17.673,0,32-14.327,32-32
			S465.673,164.046,448,164.046z M106.928,292.046H88v16h60.688L67.504,389.23l17.568-49.184H104v-16H43.312l81.184-81.184
			L106.928,292.046z M143.928,236.046l7.608-21.312c1.257-3.523-0.095-7.447-3.256-9.448c-3.163-2.001-7.29-1.543-9.936,1.104
			l-29.656,29.656H32c-8.837,0-16-7.163-16-16s7.163-16,16-16h56v-16c-17.673,0.005-32.004-14.318-32.008-31.992
			c0-1.072,0.053-2.142,0.16-3.208c2.233-16.755,16.701-29.156,33.6-28.8h17.672l-1.944-9.6c-1.827-9.036-1.927-18.335-0.296-27.408
			c7.154-39.116,44.664-65.025,83.779-57.871c23.754,4.345,43.748,20.308,53.245,42.511l2.4,5.6l6.024-0.8
			c21.678-3.151,41.806,11.868,44.957,33.546c0.29,1.994,0.427,4.007,0.411,6.022v8h23.432c17.673,0,32,14.327,32,32
			s-14.327,32-32,32H256v16c8.837,0,16,7.163,16,16s-7.163,16-16,16H143.928z M448,212.046h-56v16c8.837,0,16,7.163,16,16
			s-7.163,16-16,16H200c-5.691-0.017-10.941-3.066-13.776-8H256c17.673-0.005,31.996-14.336,31.991-32.009
			c-0.002-5.614-1.48-11.129-4.287-15.991h35.728c17.15,0.203,33.031-9.011,41.368-24H448c8.837,0,16,7.163,16,16
			S456.837,212.046,448,212.046z"/>
	</g>
</g>
<g>
	<g>
		<rect x="216" y="292.046" width="168" height="16"/>
	</g>
</g>
<g>
	<g>
		<rect x="248" y="324.046" width="136" height="16"/>
	</g>
</g>
<g>
	<g>
		<rect x="272" y="356.046" width="104" height="16"/>
	</g>
</g>
<g>
	<g>
		<rect x="288" y="388.046" width="72" height="16"/>
	</g>
</g>
<g>
	<g>
		<rect x="296" y="420.046" width="48" height="16"/>
	</g>
</g>
<g>
	<g>
		<rect x="288" y="452.046" width="32" height="16"/>
	</g>
</g>
<g>
</g>
<g>
</g>
<g>
</g>
<g>
</g>
<g>
</g>
<g>
</g>
<g>
</g>
<g>
</g>
<g>
</g>
<g>
</g>
<g>
</g>
<g>
</g>
<g>
</g>
<g>
</g>
<g>
</g>
</svg>
